HIERARCHY
ROOT Hips
{
	OFFSET 0.00000 0.00000 0.00000
	CHANNELS 6 Xposition Yposition Zposition Zrotation Yrotation Xrotation 
	JOINT LHipJoint
	{
		OFFSET 0 0 0
		CHANNELS 3 Zrotation Yrotation Xrotation
		JOINT LeftUpLeg
		{
			OFFSET 1.86795 -1.59681 0.65681
			CHANNELS 3 Zrotation Yrotation Xrotation
			JOINT LeftLeg
			{
				OFFSET 2.30491 -6.33268 0.00000
				CHANNELS 3 Zrotation Yrotation Xrotation
				JOINT LeftFoot
				{
					OFFSET 2.46780 -6.78022 0.00000
					CHANNELS 3 Zrotation Yrotation Xrotation
					JOINT LeftToeBase
					{
						OFFSET 0.07897 -0.21698 1.59652
						CHANNELS 3 Zrotation Yrotation Xrotation
						End Site
						{
							OFFSET 0.00000 -0.00000 0.82310
						}
					}
				}
			}
		}
	}
	JOINT RHipJoint
	{
		OFFSET 0 0 0
		CHANNELS 3 Zrotation Yrotation Xrotation
		JOINT RightUpLeg
		{
			OFFSET -1.93650 -1.59681 0.65681
			CHANNELS 3 Zrotation Yrotation Xrotation
			JOINT RightLeg
			{
				OFFSET -2.29410 -6.30299 0.00000
				CHANNELS 3 Zrotation Yrotation Xrotation
				JOINT RightFoot
				{
					OFFSET -2.48738 -6.83403 0.00000
					CHANNELS 3 Zrotation Yrotation Xrotation
					JOINT RightToeBase
					{
						OFFSET -0.08699 -0.23899 1.89395
						CHANNELS 3 Zrotation Yrotation Xrotation
						End Site
						{
							OFFSET -0.00000 -0.00000 0.96904
						}
					}
				}
			}
		}
	}
	JOINT LowerBack
	{
		OFFSET 0 0 0
		CHANNELS 3 Zrotation Yrotation Xrotation
		JOINT Spine
		{
			OFFSET 0.03629 1.99740 -0.07548
			CHANNELS 3 Zrotation Yrotation Xrotation
			JOINT Spine1
			{
				OFFSET 0.03970 1.94298 0.17218
				CHANNELS 3 Zrotation Yrotation Xrotation
				JOINT Neck
				{
					OFFSET 0 0 0
					CHANNELS 3 Zrotation Yrotation Xrotation
					JOINT Neck1
					{
						OFFSET -0.05054 1.79469 0.04241
						CHANNELS 3 Zrotation Yrotation Xrotation
						JOINT Head
						{
							OFFSET 0.05195 1.78475 -0.22133
							CHANNELS 3 Zrotation Yrotation Xrotation
							End Site
							{
								OFFSET 0.02420 1.80711 -0.07950
							}
						}
					}
				}
				JOINT LeftShoulder
				{
					OFFSET 0 0 0
					CHANNELS 3 Zrotation Yrotation Xrotation
					JOINT LeftArm
					{
						OFFSET 2.92134 1.19850 0.36056
						CHANNELS 3 Zrotation Yrotation Xrotation
						JOINT LeftForeArm
						{
							OFFSET 4.84137 -0.00000 0.00000
							CHANNELS 3 Zrotation Yrotation Xrotation
							JOINT LeftHand
							{
								OFFSET 3.24520 -0.00000 -0.00000
								CHANNELS 3 Zrotation Yrotation Xrotation
								JOINT LeftFingerBase
								{
									OFFSET 0 0 0
									CHANNELS 3 Zrotation Yrotation Xrotation
									JOINT LeftHandIndex1
									{
										OFFSET 0.52122 -0.00000 0.00000
										CHANNELS 3 Zrotation Yrotation Xrotation
										End Site
										{
											OFFSET 0.42022 -0.00000 0.00000
										}
									}
								}
								JOINT LThumb
								{
									OFFSET 0 0 0
									CHANNELS 3 Zrotation Yrotation Xrotation
									End Site
									{
										OFFSET 0.42664 -0.00000 0.42664
									}
								}
							}
						}
					}
				}
				JOINT RightShoulder
				{
					OFFSET 0 0 0
					CHANNELS 3 Zrotation Yrotation Xrotation
					JOINT RightArm
					{
						OFFSET -2.84327 1.20795 0.50191
						CHANNELS 3 Zrotation Yrotation Xrotation
						JOINT RightForeArm
						{
							OFFSET -4.72284 -0.00000 0.00000
							CHANNELS 3 Zrotation Yrotation Xrotation
							JOINT RightHand
							{
								OFFSET -3.23459 -0.00000 0.00000
								CHANNELS 3 Zrotation Yrotation Xrotation
								JOINT RightFingerBase
								{
									OFFSET 0 0 0
									CHANNELS 3 Zrotation Yrotation Xrotation
									JOINT RightHandIndex1
									{
										OFFSET -0.30742 -0.00000 0.00000
										CHANNELS 3 Zrotation Yrotation Xrotation
										End Site
										{
											OFFSET -0.24785 -0.00000 0.00000
										}
									}
								}
								JOINT RThumb
								{
									OFFSET 0 0 0
									CHANNELS 3 Zrotation Yrotation Xrotation
									End Site
									{
										OFFSET -0.25163 -0.00000 0.25163
									}
								}
							}
						}
					}
				}
			}
		}
	}
}
MOTION
Frames: 15
Frame Time: .0083333
23.2102 16.0392 -27.2717 0 0 0 0 0 0 -21 0 0 0 0 0 0 0 0 0 0 0 0 0 0 21 0 0 0 0 0 0 0 0 0 0 0 0 0 0 0 0 0 0 0 0 0 0 -16 0 0 21 0 0 11 0 0 0 -8 0 0 0 0 0 0 0 0 0 0 0 0 0 0 0 0 0 0 0 0 8 0 0 0 0 0 0 0 0 0 0 0 0 0 0 0 0 0
23.2102 16.0392 -27.2717 -1.2451 -22.7924 5.7755 0.0000 0.0000 0.0000 -27.3988 -13.7885 -6.2378 1.5866 7.9459 22.5499 0.6806 5.7021 -18.6892 0.0320 1.1540 3.1727 0.0000 0.0000 0.0000 16.4163 16.7258 -20.4007 -3.4782 -11.4317 33.7499 3.8614 -33.2098 -22.4229 -1.3848 -7.4458 21.0431 2.0409 -0.5202 2.5137 1.7501 -0.5642 -1.8726 0.6870 -0.3093 -3.3381 -5.4460 1.2517 0.2762 5.8522 0.7762 21.8816 2.8454 0.3114 6.5214 -0.0000 -0.0000 0.0000 -88.0022 16.1347 12.6061 20.9366 -31.7542 -6.0165 -0.0000 -0.0000 25.2346 0.3711 39.5370 0.2362 -7.1250 0.0000 -0.0000 -43.9170 64.1555 -22.4170 -0.0000 -0.0000 0.0000 73.9727 -16.6954 27.2063 -18.4614 28.7439 -4.7690 0.0000 -0.0000 -4.9869 -20.5929 25.8726 -9.3113 7.1250 -0.0000 -0.0000 5.5387 -2.7028 5.2965
23.2101 16.0477 -27.2730 -1.2557 -22.7221 5.8042 0.0000 0.0000 0.0000 -27.3782 -13.8424 -6.0882 1.5459 7.8482 22.2540 0.6285 5.9326 -18.3008 0.0426 1.3322 3.6633 0.0000 0.0000 0.0000 16.3991 16.9561 -20.3209 -3.4661 -11.4139 33.6888 4.2985 -34.2488 -20.6522 -0.9798 -6.3011 17.6605 2.0743 -0.5101 2.5015 1.7250 -0.5497 -1.9080 0.6419 -0.3034 -3.3684 -5.4578 1.2887 0.2954 5.9664 0.8081 21.8380 2.8851 0.3346 6.5003 -0.0000 0.0000 0.0000 -87.9549 16.1343 12.6115 20.9924 -31.8195 -6.0459 -0.0000 -0.0000 25.3918 1.8209 38.2474 1.1275 -7.1250 0.0000 -0.0000 -40.7298 63.6035 -19.9967 -0.0000 0.0000 0.0000 74.0744 -16.6879 26.9814 -18.5455 28.8500 -4.8096 0.0000 -0.0000 -4.9633 -19.8114 25.4644 -8.8045 7.1250 -0.0000 -0.0000 5.9709 -3.2585 5.6531
23.2087 16.0506 -27.2726 -1.0885 -22.7240 5.7603 0.0000 0.0000 0.0000 -27.5511 -13.8602 -5.8817 1.4952 7.7243 21.8796 0.6036 6.1110 -18.1643 0.0362 1.2283 3.3773 0.0000 0.0000 0.0000 16.2103 17.0100 -20.3715 -3.4918 -11.4516 33.8185 4.2400 -34.0978 -20.8307 -0.9854 -6.3185 17.7115 1.8238 -0.5453 2.4599 1.7352 -0.6066 -1.9521 0.7957 -0.3259 -3.3876 -5.5255 1.3629 0.3780 5.9885 0.9074 21.7932 2.9070 0.3778 6.4648 0.0000 0.0000 0.0000 -88.0557 16.1972 12.5397 21.0682 -31.9079 -6.0860 -0.0000 -0.0000 25.3954 2.3169 37.9547 1.4255 -7.1250 0.0000 -0.0000 -39.8567 63.5158 -19.4167 0.0000 0.0000 0.0000 73.9503 -16.7290 27.2262 -18.6492 28.9805 -4.8597 0.0000 -0.0000 -5.0904 -19.8485 25.4742 -8.8252 7.1250 -0.0000 -0.0000 5.9493 -3.2421 5.6342
23.2089 16.0481 -27.2713 -0.8388 -22.7220 5.6749 0.0000 0.0000 0.0000 -27.8099 -13.8080 -5.7435 1.4543 7.6224 21.5730 0.5955 6.1369 -18.0959 0.0332 1.1754 3.2315 0.0000 0.0000 0.0000 15.9360 16.9291 -20.4343 -3.5003 -11.4640 33.8612 4.0432 -33.6224 -21.6155 -1.1478 -6.8028 19.1325 1.5578 -0.5674 2.4256 1.6789 -0.6489 -1.9623 0.8887 -0.3413 -3.3761 -5.5964 1.3829 0.2787 6.0776 0.9249 21.8655 2.9514 0.3882 6.5024 -0.0000 -0.0000 0.0000 -88.0498 16.1717 12.5974 21.1543 -32.0080 -6.1315 -0.0000 -0.0000 25.2180 1.7357 38.4001 1.0784 -7.1250 0.0000 -0.0000 -41.0179 63.6950 -20.2491 -0.0000 -0.0000 0.0000 73.9014 -16.7026 27.4155 -18.6936 29.0362 -4.8813 0.0000 -0.0000 -5.2389 -19.9346 25.5618 -8.8941 7.1250 -0.0000 -0.0000 5.9056 -3.1374 5.6038
23.2114 16.0519 -27.2676 -0.7513 -22.7297 5.6560 0.0000 0.0000 0.0000 -27.9392 -13.9482 -5.5531 1.4232 7.5441 21.3376 0.5672 6.3530 -17.9502 0.0367 1.2368 3.4007 0.0000 0.0000 0.0000 15.8160 16.8933 -20.4663 -3.5031 -11.4681 33.8754 3.8872 -33.2597 -22.2662 -1.3235 -7.2858 20.5648 1.4777 -0.5720 2.3694 1.6548 -0.6604 -1.9573 0.9085 -0.3453 -3.3384 -5.7867 1.3818 0.3319 6.2837 0.8984 21.7581 3.0468 0.3755 6.4561 0.0000 0.0000 0.0000 -88.0481 16.1825 12.7712 21.3130 -32.1919 -6.2159 -0.0000 -0.0000 24.9766 1.4112 39.0360 0.8889 -7.1250 0.0000 -0.0000 -42.2076 64.0781 -21.3130 0.0000 0.0000 0.0000 73.8810 -16.6156 27.4878 -18.6995 29.0436 -4.8841 0.0000 -0.0000 -5.3083 -19.5600 25.4382 -8.6771 7.1250 -0.0000 -0.0000 6.1210 -3.3279 5.7890
23.2139 16.0552 -27.2635 -0.8040 -22.7758 5.6490 0.0000 0.0000 0.0000 -27.9455 -14.0796 -5.3716 1.4071 7.5031 21.2147 0.4984 6.8415 -17.5681 0.0134 0.7477 2.0548 0.0000 0.0000 0.0000 15.8600 16.9497 -20.3794 -3.4946 -11.4556 33.8323 3.8737 -33.2335 -22.3489 -1.3485 -7.3517 20.7615 1.5205 -0.5983 2.3346 1.6892 -0.6936 -1.9712 0.9214 -0.3625 -3.3331 -6.0884 1.4286 0.8107 6.5399 0.9208 21.3814 3.1698 0.3758 6.2457 -0.0000 0.0000 0.0000 -88.1148 16.2751 12.8689 21.4549 -32.3554 -6.2916 -0.0000 -0.0000 24.7645 1.0450 39.3263 0.6623 -7.1250 0.0000 -0.0000 -42.9705 64.1895 -21.8779 -0.0000 0.0000 0.0000 73.7716 -16.5617 27.6449 -18.6928 29.0352 -4.8808 0.0000 -0.0000 -5.2674 -19.3344 25.3536 -8.5444 7.1250 -0.0000 -0.0000 6.2502 -3.4525 5.8982
23.2153 16.0532 -27.2607 -0.8856 -22.8493 5.6139 0.0000 0.0000 0.0000 -27.9108 -14.0441 -5.2542 1.3989 7.4821 21.1518 0.4561 7.1129 -17.3079 0.0019 0.2808 0.7715 0.0000 0.0000 0.0000 15.9614 16.9947 -20.2383 -3.4772 -11.4302 33.7450 3.9135 -33.3190 -22.1496 -1.2694 -7.1410 20.1339 1.5764 -0.6271 2.3395 1.7295 -0.7285 -1.9873 0.9336 -0.3809 -3.3526 -6.3176 1.4994 1.1219 6.7436 0.9791 21.2430 3.2713 0.3959 6.1395 0.0000 -0.0000 0.0000 -88.1727 16.3521 12.9145 21.5766 -32.4952 -6.3569 -0.0000 -0.0000 24.6369 0.2463 39.4029 0.1564 -7.1250 0.0000 -0.0000 -43.8441 64.0245 -22.2418 0.0000 -0.0000 0.0000 73.6742 -16.5200 27.7689 -18.6831 29.0230 -4.8761 0.0000 -0.0000 -5.1479 -19.3428 25.3905 -8.5598 7.1250 -0.0000 -0.0000 6.2485 -3.4131 5.9012
23.2162 16.0525 -27.2555 -0.9274 -22.9115 5.5453 0.0000 0.0000 0.0000 -27.9142 -14.0003 -5.1208 1.3949 7.4719 21.1213 0.4650 7.0784 -17.3824 0.0031 0.3573 0.9816 0.0000 0.0000 0.0000 16.0319 16.9340 -20.1154 -3.4644 -11.4113 33.6798 4.0557 -33.6144 -21.3375 -1.0682 -6.5706 18.4492 1.5580 -0.6299 2.3734 1.7720 -0.7307 -1.9930 0.9884 -0.3812 -3.3769 -6.3860 1.5280 1.1322 6.7710 1.0118 21.3279 3.2950 0.4074 6.1617 -0.0000 -0.0000 0.0000 -88.2482 16.4443 13.0033 21.7428 -32.6852 -6.4464 -0.0000 -0.0000 24.5651 0.2122 39.4872 0.1350 -7.1250 0.0000 -0.0000 -43.9970 64.0757 -22.3857 -0.0000 -0.0000 0.0000 73.6034 -16.5069 27.8259 -18.7031 29.0481 -4.8859 0.0000 -0.0000 -5.1306 -19.4237 25.3996 -8.6007 7.1250 -0.0000 -0.0000 6.2002 -3.3904 5.8577
23.2169 16.0529 -27.2501 -0.8940 -22.9757 5.4449 0.0000 0.0000 0.0000 -27.9860 -13.9412 -5.0035 1.3935 7.4682 21.1102 0.4922 6.9810 -17.6153 0.0097 0.6351 1.7454 0.0000 0.0000 0.0000 16.0252 16.8641 -20.0299 -3.4614 -11.4069 33.6648 4.1928 -33.9081 -20.5069 -0.9135 -6.0899 17.0456 1.4846 -0.6011 2.4224 1.7868 -0.6932 -1.9986 1.0435 -0.3606 -3.4095 -6.3442 1.5110 1.1762 6.6475 1.0060 21.3242 3.2471 0.3985 6.1558 0.0000 0.0000 0.0000 -88.2928 16.5063 13.1168 21.8180 -32.7707 -6.4871 -0.0000 -0.0000 24.5596 0.1166 39.2660 0.0738 -7.1250 0.0000 -0.0000 -43.7734 63.8901 -22.0647 0.0000 0.0000 0.0000 73.5944 -16.5319 27.7384 -18.7103 29.0571 -4.8894 0.0000 -0.0000 -5.0789 -19.6530 25.5435 -8.7543 7.1250 -0.0000 -0.0000 6.0748 -3.2041 5.7587
23.2173 16.0531 -27.2483 -0.8513 -23.0423 5.3848 0.0000 0.0000 0.0000 -28.0551 -13.9081 -4.9622 1.3955 7.4733 21.1254 0.5002 7.0309 -17.7514 0.0111 0.6798 1.8682 0.0000 0.0000 0.0000 15.9957 16.8626 -19.9961 -3.4613 -11.4068 33.6646 4.1236 -33.7409 -20.8166 -1.0204 -6.4262 18.0262 1.3874 -0.5555 2.4263 1.8054 -0.6355 -1.9924 1.1140 -0.3293 -3.4043 -6.3805 1.4571 1.0886 6.6091 0.9425 21.4173 3.2410 0.3632 6.2054 0.0000 -0.0000 0.0000 -88.3231 16.4954 13.2231 21.8782 -32.8392 -6.5197 -0.0000 -0.0000 24.5989 -0.6023 39.0406 -0.3794 -7.1250 0.0000 -0.0000 -44.1410 63.5315 -21.9236 0.0000 -0.0000 0.0000 73.5942 -16.5267 27.5951 -18.7053 29.0509 -4.8869 0.0000 -0.0000 -5.0413 -19.7109 25.9180 -8.8998 7.1250 -0.0000 -0.0000 6.0766 -2.8097 5.8046
23.2185 16.0525 -27.2468 -0.8371 -23.0775 5.3863 0.0000 0.0000 0.0000 -28.0907 -13.9624 -4.9956 1.4081 7.5057 21.2223 0.4810 7.2112 -17.6865 0.0057 0.4859 1.3351 0.0000 0.0000 0.0000 15.9760 16.8420 -20.0087 -3.4565 -11.3997 33.6399 4.0749 -33.6259 -21.0428 -1.0941 -6.6470 18.6736 1.3075 -0.5185 2.3771 1.8372 -0.5898 -1.9945 1.1885 -0.3041 -3.3779 -6.4615 1.3825 0.9681 6.6321 0.8411 21.5673 3.2623 0.3104 6.2804 -0.0000 0.0000 0.0000 -88.3446 16.4584 13.3731 22.0006 -32.9777 -6.5862 -0.0000 -0.0000 24.6332 -1.1293 38.9486 -0.7099 -7.1250 0.0000 -0.0000 -44.5124 63.3230 -21.9322 -0.0000 0.0000 0.0000 73.5508 -16.4784 27.5150 -18.6739 29.0114 -4.8717 0.0000 -0.0000 -5.1038 -19.4394 26.3281 -8.8962 7.1250 -0.0000 -0.0000 6.2814 -2.4359 6.0456
23.2198 16.0499 -27.2452 -0.9526 -23.0915 5.4660 0.0000 0.0000 0.0000 -27.9730 -14.0202 -5.1128 1.4307 7.5631 21.3946 0.4760 7.2485 -17.6610 0.0072 0.5492 1.5092 0.0000 0.0000 0.0000 16.0933 16.7671 -20.0473 -3.4444 -11.3818 33.5786 4.1876 -33.8769 -20.3993 -0.9842 -6.3147 17.7002 1.4098 -0.4844 2.2855 1.8518 -0.5420 -2.0115 1.1429 -0.2827 -3.3452 -6.3602 1.3211 0.9694 6.5237 0.7660 21.6711 3.2085 0.2733 6.3208 -0.0000 0.0000 0.0000 -88.2347 16.3943 13.6730 22.0568 -33.0411 -6.6168 -0.0000 -0.0000 24.6057 -0.6846 38.8558 -0.4295 -7.1250 0.0000 -0.0000 -43.9635 63.3760 -21.6605 -0.0000 0.0000 0.0000 73.5838 -16.4244 27.4338 -18.6105 28.9318 -4.8410 0.0000 -0.0000 -5.0850 -19.3178 26.1760 -8.7903 7.1250 -0.0000 -0.0000 6.3394 -2.6125 6.0817
23.2218 16.0467 -27.2455 -1.1814 -23.1098 5.5449 0.0000 0.0000 0.0000 -27.7405 -14.0122 -5.2215 1.4567 7.6286 21.5916 0.4842 7.1583 -17.6762 0.0089 0.6077 1.6701 0.0000 0.0000 0.0000 16.3462 16.7031 -20.0294 -3.4290 -11.3592 33.5010 4.2436 -34.0028 -20.0598 -0.9771 -6.2925 17.6354 1.6556 -0.4558 2.2408 1.8715 -0.4956 -2.0010 1.0224 -0.2651 -3.3117 -6.2166 1.2796 0.8102 6.4312 0.7177 21.8966 3.1578 0.2552 6.4259 -0.0000 -0.0000 0.0000 -88.1056 16.3545 14.0159 22.1537 -33.1503 -6.6697 -0.0000 -0.0000 24.4371 0.1067 38.7882 0.0668 -7.1250 0.0000 -0.0000 -43.1168 63.5407 -21.3254 -0.0000 -0.0000 0.0000 73.6366 -16.3498 27.3984 -18.5523 28.8585 -4.8128 0.0000 -0.0000 -4.9344 -19.3073 25.9507 -8.7160 7.1250 -0.0000 -0.0000 6.3238 -2.8449 6.0396
23.2246 16.0450 -27.2470 -1.2860 -23.1505 5.5506 0.0000 0.0000 0.0000 -27.6495 -14.0015 -5.2866 1.4797 7.6858 21.7638 0.4940 7.1372 -17.7720 0.0060 0.4999 1.3737 0.0000 0.0000 0.0000 16.4658 16.6874 -20.0025 -3.4184 -11.3435 33.4471 4.1498 -33.7786 -20.5257 -1.1136 -6.7040 18.8414 1.7650 -0.4300 2.2427 1.8763 -0.4574 -1.9798 0.9639 -0.2485 -3.2920 -6.0612 1.2410 0.5480 6.3134 0.6821 22.1551 3.0989 0.2439 6.5592 -0.0000 0.0000 0.0000 -88.0587 16.3157 14.2770 22.3276 -33.3453 -6.7650 -0.0000 -0.0000 24.1784 0.6155 38.5931 0.3840 -7.1250 0.0000 -0.0000 -42.3623 63.5353 -20.8772 -0.0000 0.0000 0.0000 73.6578 -16.2927 27.3917 -18.5257 28.8251 -4.8000 0.0000 -0.0000 -4.7228 -19.2577 26.0178 -8.7128 7.1250 -0.0000 -0.0000 6.3603 -2.7846 6.0819
